{"title":"Mladost.5.Episode.03.WEB.Rip.MP4.MC.FREEPLAY.mp4","uid":8289985,"size":907829227,"categoryP":"video","categoryS":"hd___tv_shows","magnet":"?xt=urn:btih:8b494fc12e021e1b1a7d5f094acb0053d8d75779&amp;dn=Mladost.5.Episode.03.WEB.Rip.MP4.MC.FREEPLAY.mp4&amp;tr=udp%3A%2F%2Ftracker.openbittorrent.com%3A80&amp;tr=udp%3A%2F%2Fopen.demonii.com%3A1337&amp;tr=udp%3A%2F%2Ftracker.coppersurfer.tk%3A6969&amp;tr=udp%3A%2F%2Fexodus.desync.com%3A6969","seeders":0,"leechers":0,"uploader":"freeplay666","files":1,"time":1364031422,"description":"Mladost.5.Episode.03.WEB.Rip.MP4.MC.FREEPLAY.mp4\n   \nGeneral\n      Complete name : Mladost.5.Episode.03.WEB.Rip.MP4.MC.FREEPLAY.mp4\n      Format : MPEG-4\n      Format profile : Base Media / Version 2\n      Codec ID : mp42\n      File size : 866 MiB\n      Duration : 46mn 2s\n      Overall bit rate : 2 629 Kbps\n      Encoded date : UTC 2013-03-23 08:04:45\n      Tagged date : UTC 2013-03-23 08:04:45\n   Video #1\n      ID : 1\n      Format : MPEG-4 Visual\n      Format profile : AdvancedSimple@L5\n      Format settings, BVOP : No\n      Format settings, QPel : No\n      Format settings, GMC : No warppoints\n      Format settings, Matrix : Default (H.263)\n      Codec ID : 20\n      Duration : 46mn 2s\n      Bit rate mode : Variable\n      Bit rate : 2 500 Kbps\n      Maximum bit rate : 31.3 Mbps\n      Width : 1 280 pixels\n      Height : 720 pixels\n      Display aspect ratio : 16:9\n      Frame rate mode : Constant\n      Frame rate : 30.000 fps\n      Resolution : 24 bits\n      Colorimetry : 4:2:0\n      Scan type : Progressive\n      Bits/(Pixel*Frame) : 0.090\n      Stream size : 823 MiB (95%)\n      Language : English\n      Encoded date : UTC 2013-03-23 08:04:45\n      Tagged date : UTC 2013-03-23 08:04:45\n   Audio #2\n      ID : 2\n      Format : AAC\n      Format/Info : Advanced Audio Codec\n      Format version : Version 4\n      Format profile : LC\n      Format settings, SBR : No\n      Codec ID : 40\n      Duration : 46mn 2s\n      Bit rate mode : Variable\n      Bit rate : 126 Kbps\n      Maximum bit rate : 374 Kbps\n      Channel(s) : 2 channels\n      Channel positions : L R\n      Sampling rate : 44.1 KHz\n      Resolution : 16 bits\n      Stream size : 41.4 MiB (5%)\n      Language : English\n      Encoded date : UTC 2013-03-23 08:04:45\n      Tagged date : UTC 2013-03-23 08:04:45","torrent":{"xt":"urn:btih:8b494fc12e021e1b1a7d5f094acb0053d8d75779","amp;dn":"Mladost.5.Episode.03.WEB.Rip.MP4.MC.FREEPLAY.mp4","amp;tr":["udp%3A%2F%2Ftracker.openbittorrent.com%3A80","udp%3A%2F%2Fopen.demonii.com%3A1337","udp%3A%2F%2Ftracker.coppersurfer.tk%3A6969","udp%3A%2F%2Fexodus.desync.com%3A6969"],"infoHash":"8b494fc12e021e1b1a7d5f094acb0053d8d75779","infoHashBuffer":{"type":"Buffer","data":[139,73,79,193,46,2,30,27,26,125,95,9,74,203,0,83,216,215,87,121]},"announce":[],"urlList":[]}}